<?xml version="1.0" standalone="no"?>
<svg xmlns="http://www.w3.org/2000/svg" xmlns:xlink="http://www.w3.org/1999/xlink">
  <mask id="mask0" mask-type="alpha">
    <path fill="#000000" d="M22.3,-41.3C32.5,-32.6,47,-34.1,53.4,-28.9C59.9,-23.7,58.1,-11.8,54.7,-2C51.3,7.9,46.1,15.8,44.1,28.6C42.1,41.4,43.2,59.1,36.4,62.4C29.6,65.7,14.8,54.6,0.4,53.9C-14,53.2,-28,63,-36.4,60.6C-44.8,58.2,-47.6,43.7,-54.6,31.6C-61.5,19.4,-72.6,9.7,-76.1,-2C-79.6,-13.7,-75.4,-27.5,-65.2,-33.9C-55,-40.3,-38.6,-39.4,-26.7,-47.2C-14.8,-54.9,-7.4,-71.3,-0.7,-70.1C6,-68.9,12,-50,22.3,-41.3Z" transform="translate(100 100)" />
  </mask>
  <g mask="url(#mask0)">
    <path fill="#000000" d="M22.3,-41.3C32.5,-32.6,47,-34.1,53.4,-28.9C59.9,-23.7,58.1,-11.8,54.7,-2C51.3,7.9,46.1,15.8,44.1,28.6C42.1,41.4,43.2,59.1,36.4,62.4C29.6,65.7,14.8,54.6,0.4,53.9C-14,53.2,-28,63,-36.4,60.6C-44.8,58.2,-47.6,43.7,-54.6,31.6C-61.5,19.4,-72.6,9.7,-76.1,-2C-79.6,-13.7,-75.4,-27.5,-65.2,-33.9C-55,-40.3,-38.6,-39.4,-26.7,-47.2C-14.8,-54.9,-7.4,-71.3,-0.7,-70.1C6,-68.9,12,-50,22.3,-41.3Z" transform="translate(100 100)" />
    <image class="home__blob-img" xlink:href="assets/img/daniel.jpg"/>
  </g>
</svg>
